<?xml version="1.0" encoding="UTF-8"?>
<svg version="1.1" xmlns="http://www.w3.org/2000/svg" width="512" height="512">
<path d="M0 0 C2.70577867 2.42724263 5.33400019 4.92491521 7.92822266 7.47070312 C9.35094785 8.86342106 10.79634544 10.23285839 12.2421875 11.6015625 C24.01293587 22.95726332 33.15708987 35.82650722 41.38671875 49.8984375 C41.74362793 50.50236328 42.10053711 51.10628906 42.46826172 51.72851562 C57.5172235 77.48634406 65.4593809 107.69745585 65.76171875 137.4609375 C65.77565674 138.34765137 65.78959473 139.23436523 65.80395508 140.14794922 C65.77716047 143.71754839 65.71861751 146.23362501 64.109375 149.45703125 C61.72535581 151.45182282 59.44956097 151.38301797 56.421875 151.4296875 C53.4911784 150.66466881 52.31498706 149.20022026 50.38671875 146.8984375 C49.8125 144.48266602 49.8125 144.48266602 49.69921875 141.77734375 C49.6429834 140.77050537 49.58674805 139.76366699 49.52880859 138.72631836 C49.48191895 137.64874268 49.4350293 136.57116699 49.38671875 135.4609375 C47.70614374 109.1047414 41.29208134 84.07594729 28.38671875 60.8984375 C27.80019531 59.82464844 27.21367187 58.75085938 26.609375 57.64453125 C2.99467723 15.7163944 -36.10599592 -10.86941975 -81.78417969 -23.71191406 C-85.69670838 -24.73213279 -89.62059343 -25.47535085 -93.61328125 -26.1015625 C-94.87140625 -26.30394531 -96.12953125 -26.50632812 -97.42578125 -26.71484375 C-141.48456748 -33.15200408 -188.80726072 -21.4946989 -224.64453125 5.15234375 C-227.35774968 7.34349627 -229.99776056 9.59180499 -232.61328125 11.8984375 C-233.45375 12.62933594 -234.29421875 13.36023438 -235.16015625 14.11328125 C-237.67980912 16.33949628 -240.15325755 18.60658712 -242.61328125 20.8984375 C-243.41378906 21.63320312 -244.21429688 22.36796875 -245.0390625 23.125 C-274.89301353 51.59814628 -292.79818015 95.07676047 -293.81640625 136.04296875 C-294.3556087 182.00911888 -280.35431636 226.43003718 -248.23828125 260.2265625 C-244.38911174 264.14446717 -240.53293032 268.05096947 -236.61328125 271.8984375 C-236.51829346 271.2499585 -236.42330566 270.60147949 -236.32543945 269.93334961 C-231.48499186 237.48655108 -220.67100718 210.32129817 -194.5234375 189.4296875 C-185.04078009 182.58435755 -174.53761196 177.07909483 -163.61328125 172.8984375 C-166.43912449 169.98428666 -169.32644359 167.27095398 -172.42578125 164.6484375 C-188.83236358 150.30809768 -197.31008521 131.39916704 -198.83203125 109.79296875 C-199.44815214 88.71649998 -191.65409625 68.45584425 -177.35961914 53.05517578 C-162.64456926 37.99199697 -143.03639048 30.11975908 -122.11328125 29.5234375 C-100.04648404 30.15157653 -81.33135643 38.45043234 -65.61328125 53.8984375 C-64.98679687 54.51203125 -64.3603125 55.125625 -63.71484375 55.7578125 C-50.13033414 70.14141091 -43.95061696 90.14378964 -44.36328125 109.66796875 C-46.01120761 130.96226724 -54.77013212 150.38118369 -70.61328125 164.8984375 C-74.11418943 167.79934555 -77.81575741 170.40103304 -81.61328125 172.8984375 C-80.5975 173.32253906 -79.58171875 173.74664062 -78.53515625 174.18359375 C-49.72643916 186.3810879 -27.77542165 205.63779898 -15.61328125 234.8984375 C-11.04914 246.84901847 -9.22013508 259.26569234 -7.61328125 271.8984375 C1.30233912 264.14884394 8.70584713 255.99337362 15.74804688 246.55371094 C22.80428727 237.18908818 22.80428727 237.18908818 27.44921875 236.3359375 C30.38671875 236.8984375 30.38671875 236.8984375 32.76171875 238.4609375 C35.01730739 241.84432046 34.7832057 243.87513836 34.38671875 247.8984375 C33.03507025 250.39356304 31.78359506 252.37341206 30.07421875 254.5859375 C29.62344971 255.19042725 29.17268066 255.79491699 28.70825195 256.41772461 C24.00042006 262.61660004 18.7996153 268.31375977 13.38671875 273.8984375 C12.87737793 274.43355957 12.36803711 274.96868164 11.84326172 275.52001953 C-20.69557904 309.6622525 -66.53438556 329.65711262 -113.64453125 331.18359375 C-166.33814445 332.16283392 -214.51040651 314.39343823 -252.61328125 277.8984375 C-253.11746582 277.42148437 -253.62165039 276.94453125 -254.14111328 276.453125 C-289.37774413 242.99454058 -307.92396011 195.58866037 -309.7421875 147.48828125 C-310.56331316 97.18064933 -291.62841514 49.60386645 -256.97802734 13.33056641 C-255.66379658 11.95144697 -254.36667464 10.55608537 -253.0703125 9.16015625 C-187.6816942 -59.19617544 -70.46909418 -61.47262439 0 0 Z M-169.86328125 67.6484375 C-180.14816943 81.19540133 -185.19726812 97.32367003 -183.22265625 114.24609375 C-180.26300245 132.28859864 -171.32864598 146.87568876 -156.67578125 157.8359375 C-151.31290009 161.32606651 -145.63813746 163.78271296 -139.61328125 165.8984375 C-138.55947266 166.2696875 -138.55947266 166.2696875 -137.484375 166.6484375 C-121.59092513 171.12721789 -104.32236024 167.51922481 -90.078125 160.04296875 C-76.12551482 151.82430796 -65.72442614 137.78076196 -61.640625 122.18359375 C-58.13480885 105.861166 -59.68825882 90.89861401 -67.61328125 75.8984375 C-69.76238672 72.72065907 -72.11758695 69.80728924 -74.61328125 66.8984375 C-75.23074219 66.08246094 -75.84820312 65.26648438 -76.484375 64.42578125 C-87.13458014 51.7823267 -103.23755544 46.37563566 -119.1953125 44.61328125 C-138.79337966 43.86575962 -157.30549443 52.83972662 -169.86328125 67.6484375 Z M-153.61328125 185.8984375 C-154.58442871 186.18847656 -154.58442871 186.18847656 -155.57519531 186.484375 C-170.48797821 191.0970162 -182.41650787 199.04524742 -193.61328125 209.8984375 C-194.22429687 210.43597656 -194.8353125 210.97351563 -195.46484375 211.52734375 C-212.56572074 227.10553991 -219.72577852 252.00084087 -220.80078125 274.3984375 C-220.96493429 281.39561683 -220.96493429 281.39561683 -218.38134766 287.71484375 C-215.0072655 290.81346909 -211.01896001 292.4545661 -206.77294922 294.04931641 C-203.93819134 295.16386399 -201.32603073 296.58960472 -198.6496582 298.03588867 C-183.74805949 305.9631337 -168.08944629 310.51741224 -151.61328125 313.8984375 C-150.41960937 314.14722656 -149.2259375 314.39601563 -147.99609375 314.65234375 C-104.4792397 321.97341449 -59.87798174 310.07490449 -23.61328125 285.8984375 C-23.14965288 284.03942557 -23.14965288 284.03942557 -23.21484375 281.890625 C-23.20864014 281.07674316 -23.20243652 280.26286133 -23.19604492 279.42431641 C-23.20998291 278.54952637 -23.2239209 277.67473633 -23.23828125 276.7734375 C-23.24770752 275.87415527 -23.25713379 274.97487305 -23.2668457 274.04833984 C-23.82864371 248.75176178 -33.55477326 226.32478691 -51.171875 208.27734375 C-74.77929636 185.76634835 -102.84001553 182.0744059 -133.89794922 182.76660156 C-140.72351343 183.0088019 -147.04887521 183.93358127 -153.61328125 185.8984375 Z " fill="#96A5E1" transform="translate(377.61328125,113.1015625)"/>
<path d="M0 0 C2.57207908 1.54324745 2.92766874 2.78300621 3.875 5.625 C4.04114825 10.11100282 3.02282523 13.98645788 1 18 C-2.7205836 20.48038907 -4.59796571 20.46337203 -9 20 C-11.5 18.5625 -11.5 18.5625 -13 16 C-13.32498569 10.47524328 -11.93134524 5.69015238 -9 1 C-5.95016004 -0.52491998 -3.3576631 -0.23562548 0 0 Z " fill="#EC71C5" transform="translate(433,298)"/>
</svg>
