<?xml version="1.0" standalone="no"?>
<!DOCTYPE svg PUBLIC "-//W3C//DTD SVG 20010904//EN"
 "http://www.w3.org/TR/2001/REC-SVG-20010904/DTD/svg10.dtd">
<svg version="1.0" xmlns="http://www.w3.org/2000/svg"
 width="450.000000pt" height="450.000000pt" viewBox="0 0 450.000000 450.000000"
 preserveAspectRatio="xMidYMid meet">

<g transform="translate(0.000000,450.000000) scale(0.100000,-0.100000)"
fill="#000000" stroke="none">
<path d="M1875 3610 c-117 -23 -232 -86 -261 -141 -12 -24 -15 -56 -13 -140 2
-94 0 -111 -16 -129 -11 -12 -20 -41 -23 -73 -4 -49 -2 -56 27 -84 17 -18 41
-33 52 -35 14 -2 32 -22 51 -58 24 -45 29 -64 25 -102 l-4 -46 43 36 c42 35
43 36 23 50 -24 17 -79 90 -79 106 0 6 14 19 30 28 19 11 38 35 50 63 16 36
24 45 44 45 15 0 30 -8 36 -20 17 -32 68 -53 114 -47 59 8 96 52 96 113 0 39
-5 51 -34 80 -28 28 -42 34 -76 34 -52 0 -95 -28 -111 -74 -15 -42 -59 -54
-86 -23 -27 29 -73 49 -99 44 -19 -3 -24 0 -24 15 0 33 19 57 60 78 53 27 153
50 218 50 46 0 58 -4 84 -30 19 -20 40 -30 59 -30 81 0 177 -105 199 -218 7
-34 17 -65 23 -69 6 -4 43 -7 81 -8 89 -2 135 -24 202 -98 100 -109 163 -266
171 -424 7 -126 0 -162 -36 -199 l-29 -30 74 -174 c42 -96 78 -177 81 -180 8
-8 103 100 150 172 148 229 176 534 71 787 -86 207 -271 387 -479 465 -89 33
-204 56 -286 56 l-68 0 -31 48 c-51 77 -144 131 -231 132 -36 0 -40 2 -36 20
3 11 4 20 2 19 -2 -1 -22 -5 -44 -9z m311 -207 c-8 -8 -36 5 -36 17 0 7 6 7
21 0 11 -7 18 -14 15 -17z"/>
<path d="M422 2855 l-342 -535 0 -100 0 -100 380 0 380 0 0 -225 0 -225 145 0
145 0 0 225 0 225 111 0 112 0 -7 77 c-3 42 -6 93 -6 115 l0 38 -105 0 -105 0
0 520 0 520 -183 0 -183 0 -342 -535z m434 203 c-3 -29 -9 -200 -13 -380 l-6
-328 -225 0 c-175 0 -223 3 -219 13 2 6 74 118 158 248 85 130 186 295 224
367 39 73 74 132 79 132 5 0 6 -24 2 -52z"/>
<path d="M3498 2860 l-338 -530 0 -105 0 -105 378 -2 377 -3 3 -222 2 -223
140 0 140 0 2 223 3 222 108 3 107 3 0 114 0 115 -110 0 -110 0 0 520 0 520
-182 0 -183 -1 -337 -529z m429 143 c-4 -58 -7 -229 -7 -380 l0 -273 -230 0
c-126 0 -230 2 -230 5 0 3 9 18 19 33 85 118 318 493 371 595 36 70 69 127 74
127 5 0 6 -45 3 -107z"/>
<path d="M1497 2912 c-45 -100 -77 -226 -76 -307 l0 -60 65 134 c67 141 74
173 56 276 l-7 39 -38 -82z"/>
<path d="M1567 2196 l-46 -54 38 -58 c20 -33 61 -85 90 -117 77 -84 278 -214
298 -193 10 9 -20 181 -58 339 l-31 127 -26 -20 c-15 -11 -48 -35 -73 -54
l-45 -35 -38 48 c-58 78 -57 77 -109 17z"/>
<path d="M4142 1273 c3 -65 7 -137 7 -160 1 -42 2 -43 35 -43 l34 0 6 93 c4
50 9 122 12 160 l6 67 -53 0 -54 0 7 -117z"/>
<path d="M170 1135 l0 -245 48 0 47 0 -5 172 c-3 95 -5 174 -4 176 1 2 42 -76
90 -172 l89 -176 52 0 53 0 0 245 0 245 -46 0 -46 0 4 -175 c2 -96 3 -175 2
-175 -1 0 -39 73 -84 163 -45 89 -87 168 -92 175 -6 6 -32 12 -59 12 l-49 0 0
-245z"/>
<path d="M758 1360 c-74 -39 -110 -115 -109 -230 0 -129 59 -214 165 -241 100
-25 199 22 242 115 47 100 25 269 -42 328 -57 50 -187 64 -256 28z m147 -74
c49 -21 70 -66 69 -151 -1 -113 -51 -175 -130 -161 -110 21 -127 265 -21 311
40 18 41 18 82 1z"/>
<path d="M1127 1373 c-4 -3 -7 -24 -7 -45 l0 -38 70 0 70 0 0 -200 0 -200 50
0 50 0 0 200 0 200 70 0 70 0 0 45 0 45 -183 0 c-101 0 -187 -3 -190 -7z"/>
<path d="M1730 1135 l0 -245 55 0 55 0 0 95 0 95 85 0 85 0 0 45 0 45 -85 0
-85 0 0 60 0 60 101 0 100 0 -3 43 -3 42 -152 3 -153 3 0 -246z"/>
<path d="M2209 1357 c-67 -36 -101 -98 -107 -196 -5 -86 6 -134 44 -193 66
-103 242 -114 327 -19 46 51 61 100 61 191 -2 156 -77 240 -217 240 -48 0 -75
-6 -108 -23z m162 -80 c100 -67 62 -307 -49 -307 -69 0 -116 66 -116 165 0 75
24 128 67 149 43 21 58 20 98 -7z"/>
<path d="M2633 1364 c-10 -26 4 -327 17 -364 30 -83 115 -129 213 -115 66 10
105 38 130 93 18 41 22 70 25 225 l4 177 -51 0 -51 0 0 -152 c0 -84 -5 -170
-10 -190 -19 -68 -85 -89 -137 -44 l-28 24 -3 181 -3 181 -50 0 c-36 0 -51 -4
-56 -16z"/>
<path d="M3140 1135 l0 -245 52 0 51 0 -6 158 c-4 87 -9 166 -13 175 -3 9 -2
17 2 16 5 0 47 -78 94 -172 l85 -172 58 -3 57 -3 -2 243 -3 243 -49 3 -49 3 5
-175 c3 -97 4 -176 4 -176 -1 0 -42 79 -91 175 l-88 175 -54 0 -53 0 0 -245z"/>
<path d="M3640 1135 l0 -245 88 0 c112 0 181 20 227 65 94 95 80 312 -25 381
-42 28 -123 44 -222 44 l-68 0 0 -245z m209 140 c38 -19 61 -71 61 -140 0
-101 -42 -153 -128 -158 l-37 -2 -3 158 -3 157 41 0 c23 0 54 -7 69 -15z"/>
<path d="M4134 984 c-22 -33 -10 -72 28 -93 25 -14 29 -14 55 5 34 25 40 57
19 90 -23 35 -79 34 -102 -2z"/>
</g>
</svg>
